<svg xmlns="http://www.w3.org/2000/svg" xmlns:xlink="http://www.w3.org/1999/xlink" width="24" height="24" viewBox="0 0 24 24">
  <defs>
    <path id="check-a" d="M12,2 C6.48,2 2,6.48 2,12 C2,17.52 6.48,22 12,22 C17.52,22 22,17.52 22,12 C22,6.48 17.52,2 12,2 Z M10.5729708,13.6838835 L16.963961,7.29289322 C17.3544853,6.90236893 17.9876503,6.90236893 18.3781746,7.29289322 C18.7686989,7.68341751 18.7686989,8.31658249 18.3781746,8.70710678 L11.3071068,15.7781746 C11.0626779,16.0226035 10.7231944,16.1140445 10.4076456,16.0524976 C10.1958551,16.0253424 9.99109233,15.9304322 9.82842712,15.767767 L6.29289322,12.232233 C5.90236893,11.8417088 5.90236893,11.2085438 6.29289322,10.8180195 C6.68341751,10.4274952 7.31658249,10.4274952 7.70710678,10.8180195 L10.5729708,13.6838835 Z"/>
  </defs>
  <g fill="none" fill-rule="nonzero">
    <rect width="24" height="24"/>
    <mask id="check-b" fill="#fff">
      <use xlink:href="#check-a"/>
    </mask>
    <g fill="#788536" mask="url(#check-b)">
      <polygon points="0 0 24 0 24 24 0 24"/>
    </g>
  </g>
</svg>
