<?xml version="1.0" encoding="utf-8"?>
<svg version="1.1" xmlns:xlink="http://www.w3.org/1999/xlink" width="15px" height="18px" xmlns="http://www.w3.org/2000/svg">
  <g transform="matrix(1 0 0 1 -778 -678 )">
    <path d="M 11.052631578947368 1.6363636363636365  L 11.052631578947368 0  L 1.5789473684210527 0  C 0.7105263157894736 0  0 0.7363636363636362  0 1.6363636363636365  L 0 13.090909090909092  L 1.5789473684210527 13.090909090909092  L 1.5789473684210527 1.6363636363636365  L 11.052631578947368 1.6363636363636365  Z M 15 4.909090909090908  C 15 4.00909090909091  14.289473684210527 3.272727272727273  13.421052631578947 3.272727272727273  L 4.7368421052631575 3.272727272727273  C 3.868421052631579 3.272727272727273  3.1578947368421053 4.00909090909091  3.1578947368421053 4.909090909090908  L 3.1578947368421053 16.363636363636363  C 3.1578947368421053 17.263636363636365  3.868421052631579 18  4.7368421052631575 18  L 13.421052631578947 18  C 14.289473684210527 18  15 17.263636363636365  15 16.363636363636363  L 15 4.909090909090908  Z M 13.421052631578947 4.909090909090908  L 13.421052631578947 16.363636363636363  L 5 16.363636363636363  L 5 4.909090909090908  L 13.421052631578947 4.909090909090908  Z " fill-rule="nonzero" fill="#788536" stroke="none" transform="matrix(1 0 0 1 778 678 )" />
  </g>
</svg>