<?xml version="1.0" encoding="UTF-8"?>
<svg width="8px" height="8px" viewBox="0 0 8 8" version="1.1" xmlns="http://www.w3.org/2000/svg" xmlns:xlink="http://www.w3.org/1999/xlink">
    <!-- Generator: Sketch 52 (66869) - http://www.bohemiancoding.com/sketch -->
    <title>Group 2</title>
    <desc>Created with Sketch.</desc>
    <g id="Filters" stroke="none" stroke-width="1" fill="none" fill-rule="evenodd">
        <g id="Jobs-Table-Filter-6" transform="translate(-181.000000, -156.000000)">
            <g id="Chip-Copy-3" transform="translate(96.000000, 151.000000)">
                <g id="Group-2" transform="translate(85.000000, 5.000000)">
                    <circle id="Oval-Copy-2" fill="#829191" fill-rule="nonzero" cx="4" cy="4" r="4"></circle>
                    <path d="M3.14285204,5 C3.17856505,5 3.21427806,4.98571429 3.2429199,4.95714286 L3.99996429,4.2 L4.7570801,4.95714286 C4.78565051,4.98571429 4.82136352,5 4.85707653,5 C4.89278954,5 4.92850255,4.98571429 4.95714439,4.95714286 C5.0142852,4.9 5.0142852,4.81428571 4.95714439,4.75714286 L4.19995714,4 L4.95714439,3.24285714 C5.0142852,3.18571429 5.0142852,3.1 4.95714439,3.04285714 C4.89993215,2.98571429 4.81429235,2.98571429 4.7570801,3.04285714 L3.99996429,3.8 L3.2429199,3.04285714 C3.18570765,2.98571429 3.10006785,2.98571429 3.04285561,3.04285714 C2.9857148,3.1 2.9857148,3.18571429 3.04285561,3.24285714 L3.80004286,4 L3.04285561,4.75714286 C2.9857148,4.81428571 2.9857148,4.90714286 3.04285561,4.95714286 C3.07142602,4.98571429 3.10713903,5 3.14285204,5 Z" id="Fill-1-Copy-17" stroke="#FFFFFF" stroke-width="0.5" fill="#FFFFFF"></path>
                </g>
            </g>
        </g>
    </g>
</svg>