<?xml version="1.0" encoding="utf-8"?>
<svg version="1.1" xmlns:xlink="http://www.w3.org/1999/xlink" width="14px" height="18px" xmlns="http://www.w3.org/2000/svg">
  <g transform="matrix(1 0 0 1 -339 -173 )">
    <path d="M 1 4  L 1 16  C 1 17.1  1.9000000000000004 18  3 18  L 11 18  C 12.100000000000001 18  13 17.1  13 16  L 13 4  L 1 4  Z M 3 16  L 3 6  L 11 6  L 11 16  L 3 16  Z M 14 1  L 10.5 1  L 9.5 0  L 4.5 0  L 3.5 1  L 0 1  L 0 3  L 14 3  L 14 1  Z " fill-rule="nonzero" fill="#829191" stroke="none" transform="matrix(1 0 0 1 339 173 )" />
  </g>
</svg>