<svg xmlns="http://www.w3.org/2000/svg" xmlns:xlink="http://www.w3.org/1999/xlink" width="24" height="24" viewBox="0 0 24 24">
  <defs>
    <path id="clock-a" d="M12,2 C6.47714286,2 2,6.47771429 2,12 C2,17.5228571 6.47714286,22 12,22 C17.5228571,22 22,17.5228571 22,12 C22,6.47771429 17.5228571,2 12,2 M12,4.28571429 C16.2537143,4.28571429 19.7142857,7.74685714 19.7142857,12 C19.7142857,16.2537143 16.2537143,19.7142857 12,19.7142857 C7.74628571,19.7142857 4.28571429,16.2537143 4.28571429,12 C4.28571429,7.74685714 7.74628571,4.28571429 12,4.28571429 Z M11.0603111,12.7790826 L14.7397323,14.2818991 C14.903814,14.3488793 15.0843038,14.3501511 15.248829,14.2874101 C15.4137976,14.2238213 15.5428456,14.1030025 15.612913,13.9465739 C15.6825368,13.7905692 15.6847541,13.6176076 15.6182345,13.4599072 C15.5521584,13.3022069 15.4257711,13.1788445 15.2625764,13.1122882 L12.3303921,11.915122 L12.3303921,7.96922185 C12.3303921,7.61863531 12.0319408,7.33333333 11.6651961,7.33333333 C11.2984513,7.33333333 11,7.61863531 11,7.96922185 L11,12.6324043 L11.0603111,12.7790826 Z"/>
  </defs>
  <g fill="none" fill-rule="evenodd">
    <rect width="24" height="24"/>
    <mask id="clock-b" fill="#fff">
      <use xlink:href="#clock-a"/>
    </mask>
    <use fill="#AFBABA" xlink:href="#clock-a"/>
    <g fill="#829191" mask="url(#clock-b)">
      <polygon points="0 0 24 0 24 24 0 24"/>
    </g>
  </g>
</svg>
