<svg xmlns="http://www.w3.org/2000/svg" viewBox="0 0 150 26">
  <title>Vixxo</title>
  <path d="M60.6 6c-.1-.3-.5-.6-1.1-.8-.4-.1-.7-.2-.9-.2-.8 0-1.1.6-1.4 1l-5.3 12.4-5.5-12.3c-.2-.5-.6-1-1.4-1-.3 0-.6.1-.9.2-.6.2-.9.5-1.1.8-.2.4 0 .8.2 1.2l6.6 14c.4.8.8 1.2 2 1.2s1.6-.4 2-1.2l6.7-14.1c.1-.4.3-.8.1-1.2m10.5-1c-1.2 0-1.5.5-1.5 1.4V21c0 .9.2 1.4 1.5 1.4 1.2 0 1.5-.6 1.5-1.4V6.4c-.1-.8-.3-1.4-1.5-1.4m27.6 14.8l-5.6-6.2 5.3-5.8c.3-.4.6-.8.6-1.2 0-.3-.3-.6-.8-1-.4-.3-.8-.5-1.2-.5-.5 0-.8.3-1.1.7l-5 5.6L86 5.8c-.2-.3-.6-.7-1.1-.7-.4 0-.7.2-1.2.5-1 .9-.8 1.4-.2 2.1l5.2 5.9-5.6 6.4c-.8.8-.8 1.3.1 2.1.4.4.8.5 1.1.5.5 0 .9-.4 1.2-.7l5.4-6 5.3 6c.3.3.7.7 1.2.7.3 0 .7-.2 1.1-.5.9-.9.9-1.5.2-2.3m23.7 0l-5.6-6.2 5.3-5.8c.3-.3.6-.7.6-1.1 0-.3-.3-.6-.8-1-.4-.3-.8-.5-1.2-.5-.5 0-.8.3-1.1.7l-5 5.6-4.8-5.6c-.2-.3-.6-.7-1.1-.7-.4 0-.7.2-1.2.5-1 .9-.8 1.4-.2 2.1l5.2 5.9-5.6 6.3c-.7.7-.9 1.2.1 2.1.4.4.8.5 1.1.5.5 0 .9-.4 1.2-.7l5.4-6 5.3 6c.3.3.7.7 1.2.7.3 0 .7-.2 1.1-.5.8-.9.9-1.5.1-2.3m22.3-1.5c-1.2 1.2-2.7 1.8-4.4 1.8-1.7 0-3.2-.6-4.4-1.8-1.2-1.2-1.8-2.8-1.8-4.6 0-3.6 2.7-6.4 6.2-6.4 3.6 0 6.3 2.7 6.3 6.4 0 1.8-.7 3.4-1.9 4.6zm-4.5-13.9c-2.6 0-5 1-6.9 2.7-1.8 1.7-2.8 4.1-2.8 6.7s1 4.8 2.8 6.7c1.8 1.7 4.2 2.7 6.9 2.7 5.4 0 9.8-4.1 9.8-9.4s-4.3-9.4-9.8-9.4zM11.8 3.5c1.4 2.2 2.9 4.4 4.3 6.7l.2.3 1.2-1.8 3.6-5.5h-9.6l.3.3zm9.7 4.8c-1 1.6-2.1 3.2-3.1 4.7l-.1.2L20 16l8.4-12.8h-3.5l-3.4 5.1zm-7.1 10l2.1 3.1 1.7-2.6L7.9 3.1H4.4l4.7 7.3c1.7 2.5 3.4 5.2 5.3 7.9zm2 7.4c-.5 0-.9-.2-1.4-.7l-3.5-5.4L4.4 8.8c-.2-.2-.4-.5-.5-.7C2.6 6.2 1.4 4.3.2 2.4 0 1.8 0 1.3.2 1 .4.6.9.4 1.6.3h29.6c.6 0 1.1.3 1.4.7.3.4.3 1 0 1.4l-4.4 6.9c-1.7 2.6-3.4 5.1-5.1 7.8s-3.5 5.3-5.2 8c-.5.3-1 .6-1.5.6z" />
</svg>
