<svg xmlns="http://www.w3.org/2000/svg" viewBox="0 0 100 100">
  <path d="M36 20.9c4.4 6.8 8.9 13.5 13.3 20.3l.6.9 3.6-5.4 11-16.8H35.4l.6 1zm29.4 15c-3.2 4.9-6.4 9.7-9.6 14.6l-.2.3L61 59l25.6-39H75.8L65.4 35.9zM43.6 66.1l6.3 9.6 5.3-8.1L24 19.9H13.3L27.8 42c5.2 8 10.4 15.9 15.6 23.9l.2.2zm6.3 22.6c-1.4 0-2.9-.8-4.4-2.3L34.7 70 13.1 37.3c-.5-.7-1-1.5-1.4-2.2C8 29.3 4.2 23.5.5 17.7c-.6-1.8-.6-3.3.1-4.4.7-1.1 2.2-1.8 4.3-2.1h90.2c1.8 0 3.4.8 4.3 2.2.9 1.3.9 3 0 4.3L85.7 38.5 70.1 62.2c-5.3 8.1-10.7 16.2-16 24.3-1.3 1.5-2.8 2.2-4.2 2.2z" />
</svg>
