<?xml version="1.0" encoding="UTF-8"?>
<svg width="40px" height="40px" viewBox="0 0 40 40" version="1.1" xmlns="http://www.w3.org/2000/svg" xmlns:xlink="http://www.w3.org/1999/xlink">
    <!-- Generator: Sketch 50.2 (55047) - http://www.bohemiancoding.com/sketch -->
    <title>Icon / Kabob</title>
    <desc>Created with Sketch.</desc>
    <defs>
        <path d="M22.3405143,28.9600571 C22.3405143,30.4343429 21.1456571,31.6309143 19.6696571,31.6309143 C18.1953714,31.6309143 17.0005143,30.4343429 17.0005143,28.9600571 C17.0005143,27.4857714 18.1953714,26.2892 19.6696571,26.2892 C21.1456571,26.2892 22.3405143,27.4857714 22.3405143,28.9600571 Z M22.3405143,12.3846286 C22.3405143,13.8589143 21.1456571,15.0554857 19.6696571,15.0554857 C18.1953714,15.0554857 17.0005143,13.8589143 17.0005143,12.3846286 C17.0005143,10.9103429 18.1953714,9.71377143 19.6696571,9.71377143 C21.1456571,9.71377143 22.3405143,10.9103429 22.3405143,12.3846286 Z M17.0001714,20.5082857 C17.0001714,19.034 18.1950286,17.8374286 19.6710286,17.8374286 C21.1453143,17.8374286 22.3401714,19.034 22.3401714,20.5082857 C22.3401714,21.9825714 21.1453143,23.1791429 19.6710286,23.1791429 C18.1950286,23.1791429 17.0001714,21.9825714 17.0001714,20.5082857 Z" id="path-1"></path>
    </defs>
    <g id="Icon-/-Kabob" stroke="none" stroke-width="1" fill="none" fill-rule="evenodd">
        <mask id="mask-2" fill="white">
            <use xlink:href="#path-1"></use>
        </mask>
        <use id="Combined-Shape" fill="#203535" xlink:href="#path-1"></use>
        <g id="Colors-/-Onyx" mask="url(#mask-2)" fill="#102424">
            <rect x="0" y="0" width="40" height="40"></rect>
        </g>
    </g>
</svg>