<svg xmlns="http://www.w3.org/2000/svg" viewBox="0 0 50 50">
  <title>Photos</title>
  <path d="M46.67,8.33h-.84V7.5A3.33,3.33,0,0,0,42.5,4.17h-.83V3.33A3.34,3.34,0,0,0,38.33,0h-35A3.33,3.33,0,0,0,0,3.33v35a3.34,3.34,0,0,0,3.33,3.34h.84v.83A3.33,3.33,0,0,0,7.5,45.83h.83v.84A3.34,3.34,0,0,0,11.67,50h35A3.33,3.33,0,0,0,50,46.67v-35A3.34,3.34,0,0,0,46.67,8.33ZM2.5,36V3.33a.83.83,0,0,1,.83-.83h35a.84.84,0,0,1,.84.83V35.44L29.51,19,23,26.25,14.3,12.12Zm1.24,3.14,10.8-21.88L22.6,30.43l6.48-7.26,9.36,16-.11,0H3.74ZM7.5,43.33a.83.83,0,0,1-.83-.83v-.83H38.33a3.35,3.35,0,0,0,3.34-3.34V6.67h.83a.83.83,0,0,1,.83.83v35a.83.83,0,0,1-.83.83H7.5Zm40,3.34a.83.83,0,0,1-.83.83h-35a.84.84,0,0,1-.84-.83v-.84H42.5a3.33,3.33,0,0,0,3.33-3.33V10.83h.84a.84.84,0,0,1,.83.84ZM26.93,9.51a3.34,3.34,0,1,1,3.34,3.34A3.34,3.34,0,0,1,26.93,9.51Z" />
</svg>
