<?xml version="1.0" encoding="UTF-8"?>
<svg width="102px" height="103px" viewBox="0 0 102 103" version="1.1" xmlns="http://www.w3.org/2000/svg" xmlns:xlink="http://www.w3.org/1999/xlink">
    <!-- Generator: Sketch 49.2 (51160) - http://www.bohemiancoding.com/sketch -->
    <title>Page 1</title>
    <desc>Created with Sketch.</desc>
    <defs></defs>
    <g id="Attach-Asset-Flows-with-tagging" stroke="none" stroke-width="1" fill="none" fill-rule="evenodd">
        <g id="01_Scan-or-manual-search-for-asset" transform="translate(-137.000000, -139.000000)">
            <g id="Group-4" transform="translate(94.000000, 139.000000)">
                <g id="Page-1" transform="translate(43.000000, 0.000000)">
                    <path d="M53.4247994,53.2236461 L49.6549605,53.2236461 L49.6549605,55.1094429 L51.5378288,55.1094429 L51.5378288,56.9932464 L53.4247994,56.9932464 L53.4247994,53.2236461 Z M59.1198768,55.1641385 C58.9796974,55.1454962 58.839694,55.112843 58.6993974,55.1107912 C58.2235965,55.1041081 57.7476784,55.1082118 57.2405247,55.1082118 L57.2405247,53.2220633 L55.3568945,53.2220633 L55.3568945,60.8091592 L57.2169661,60.8091592 L57.2169661,62.6992354 L53.4531634,62.6992354 L53.4531634,66.5243521 C52.7833853,66.5243521 52.14496,66.5243521 51.5069448,66.5240003 C51.5072965,65.8948543 51.5072965,65.2661186 51.5072965,64.640783 L49.6585353,64.640783 L49.6585353,66.5149137 L51.5153251,66.5149137 C51.5204236,67.656135 51.5255807,68.7974148 51.5306206,69.9386947 C51.5310894,70.0535379 51.5306792,70.1684397 51.5306792,70.317519 L53.4230413,70.317519 L53.4230413,72.211992 L51.496279,72.211992 L51.496279,74.154243 L51.5027254,74.1486152 L49.6443533,74.1486152 L49.6443533,72.238138 L47.7314215,72.238138 L47.7314215,76 L40.143396,76 L40.143396,74.1265142 L38.2471661,74.1265142 L38.2471661,70.2944214 C38.887291,70.2944214 39.534917,70.2944214 40.1823087,70.2947145 C40.166603,70.7306965 40.1491392,71.1662682 40.1368324,71.6020744 C40.1312065,71.8016283 40.1358362,72.0014754 40.1358362,72.2332723 L42.0412668,72.2332723 L42.0412668,74.0993715 L45.8479085,74.0993715 L45.8479085,70.311129 L47.7101485,70.311129 L47.7101485,64.638145 L43.9500964,64.638145 L43.9500964,66.5252314 L45.8155595,66.5252314 L45.8155595,68.4213459 L42.0241546,68.4213459 L42.0241546,70.3004009 L40.1765069,70.3004009 C40.1629109,70.2355635 40.1375943,70.1707847 40.1374771,70.1059472 C40.1355432,68.3314176 40.1361292,66.556888 40.1370082,64.7823585 C40.1370082,64.7440188 40.1445681,64.7056205 40.1528312,64.6265375 L42.0334725,64.6265375 L42.0334725,62.6923179 L42.0247992,62.7017562 L49.6662124,62.7017562 C49.6662124,62.0612959 49.6662124,61.4514955 49.6657436,60.8409917 C49.7710539,60.8321395 49.8768916,60.8168388 49.9827879,60.8166044 C51.0268073,60.8148457 52.0708267,60.8160181 53.114846,60.8149043 C53.2171676,60.814787 53.3194305,60.8054659 53.418646,60.8005415 L53.418646,58.9057754 L53.0819109,58.9057754 C52.0476197,58.9057754 51.0133871,58.9068893 49.9790959,58.9040167 C49.8749577,58.9037822 49.770878,58.8793363 49.6663296,58.8665564 C49.6658022,58.2582802 49.6658022,57.6495351 49.6658022,57.0278928 L47.7464826,57.0278928 L47.7464826,58.8605768 L49.6721313,58.8605768 C49.6721313,59.5230796 49.6720727,60.1855823 49.6720141,60.8480851 C49.5566827,60.8372984 49.4413512,60.8174251 49.3260197,60.817132 C48.2720964,60.8147284 47.2182902,60.815725 46.1643669,60.815725 L45.8302689,60.815725 L45.8302689,58.9308662 L43.9240179,58.9308662 L43.9240179,60.8187734 L42.0247406,60.8187734 L42.0327107,60.8267462 L42.0327107,58.8839675 L40.1512489,58.8839675 L40.1573436,58.8900644 L40.1573436,57.0079609 L38.2152273,57.0079609 L38.223256,57.0159337 C38.2233732,56.3882532 38.2234904,55.7605141 38.2236662,55.1328336 L38.212766,55.1443824 C38.2786362,55.1323646 38.3445064,55.1099119 38.4104352,55.1097946 C39.5380816,55.1075669 40.665728,55.1070979 41.7933744,55.1103222 C41.8654566,55.1105567 41.937363,55.1437962 42.0097968,55.1612073 C42.0102656,55.7698938 42.0102656,56.3790493 42.0102656,56.9951224 L43.9072573,56.9951224 L43.9072573,55.1082704 C43.3877969,55.1082704 42.8924224,55.1042254 42.3972824,55.1109671 C42.266128,55.1127844 42.1354424,55.1477826 42.0045225,55.1675386 C42.0152469,54.5097844 42.0259713,53.8521473 42.0366957,53.1943931 L42.028081,53.2027176 L43.9274169,53.2027176 L43.9274169,49.4202788 L45.8236467,49.4202788 L45.8236467,53.1870651 L47.72351,53.1870651 L47.72351,47.5409892 L49.6724243,47.5409892 L49.6669742,47.5350096 L49.6669742,49.3990571 L51.5251705,49.3990571 L51.5251705,51.2866126 L57.2138015,51.2866126 L57.2138015,49.4041573 L55.3357973,49.4041573 L55.3357973,47.5126741 L55.3272998,47.5197089 L57.2379461,47.5197089 L57.2379461,45.5840823 L61.0200331,45.5840823 L61.0103049,45.5744681 L61.0103049,47.5158398 L62.9447442,47.5158398 L62.9447442,49.3839909 L66.7677949,49.3839909 L66.7677949,51.3300525 L68.6382979,51.3300525 L68.6303864,51.3241901 L68.6303864,53.1950379 L66.7588286,53.1950379 L66.7588286,55.0811864 L62.9571095,55.0811864 C62.9571095,54.4526266 62.9571095,53.8300463 62.9567579,53.207173 C63.5769575,53.2068212 64.1974502,53.2068212 64.8141923,53.2068212 L64.8141923,51.3303456 L62.9660172,51.3303456 L62.9660172,53.2170803 L61.0407787,53.2170803 L61.0407787,51.3310491 L59.1395089,51.3310491 L59.1395089,51.6344837 C59.1395089,52.6871836 59.1402707,53.7398836 59.1383368,54.7926422 C59.1381024,54.9186238 59.1230413,55.0446054 59.1148369,55.1706457 L59.1198768,55.1641385 Z" id="Fill-1" fill="#D7DCDC"></path>
                    <path d="M63.1877744,66.4778251 L68.8138901,66.4778251 L68.8138901,60.8168599 L63.1877744,60.8168599 L63.1877744,66.4778251 Z M59.3674933,55.1364508 C59.4584551,55.1154797 59.5493004,55.0774733 59.6404371,55.0764159 C60.1723396,55.0706591 60.7043586,55.0735963 61.2683687,55.0735963 L61.2683687,56.9665764 L66.9400527,56.9665764 L66.9400527,58.8535648 L70.7063744,58.8535648 L70.7063744,56.9762689 L68.8533982,56.9762689 L68.8533982,55.0837587 L70.7246716,55.0837587 L70.7246716,53.1808511 L72.6129604,53.1808511 L72.6129604,55.0635513 L74.4784649,55.0635513 L74.4784649,56.9869601 L74.4889538,56.9773263 L72.6398818,56.9773263 L72.6398818,62.6834059 L74.4892452,62.6834059 L74.4797469,62.6741246 C74.4797469,63.3239939 74.4797469,63.9737458 74.4796886,64.6236151 L74.4893617,64.6139813 L72.6158157,64.6139813 L72.6158157,66.5121308 L70.731839,66.5121308 L70.731839,66.8987746 C70.731839,68.5200115 70.7313146,70.1411897 70.7327714,71.7624266 C70.7329462,71.9081082 70.7459407,72.0537899 70.7529916,72.1994128 L70.7661027,72.1884279 C70.1556502,72.1975917 69.545256,72.2105151 68.9347452,72.2148621 C68.2869989,72.219444 67.6391361,72.2159194 66.9553781,72.2159194 L66.9553781,68.4294892 L65.0621363,68.4294892 L65.0621363,72.2116312 L63.1929023,72.2116312 L63.1929023,74.1131291 L65.0316603,74.1131291 L65.0316603,76 L61.2758274,76 L61.2758274,75.6477207 C61.2758274,73.9746728 61.2767015,72.3016249 61.2736714,70.6285183 C61.2734383,70.5152625 61.2426127,70.402183 61.2265297,70.2893972 C61.8700804,70.2897497 62.5132815,70.2897497 63.154851,70.2897497 L63.154851,68.4270807 L61.2761188,68.4270807 C61.2761188,68.7806524 61.2820042,69.1197734 61.2741958,69.4584245 C61.2678442,69.7367469 61.2451183,70.0145994 61.2296764,70.2926868 C60.6192822,70.3016745 60.008888,70.3105446 59.398552,70.3194735 L59.4079337,70.3281086 C59.4025728,69.5651598 59.394473,68.8021522 59.3924918,68.0391446 C59.3898113,67.0113254 59.3918508,65.9835062 59.3918508,64.955687 L59.3918508,64.6063448 L61.2554907,64.6063448 L61.2554907,60.8009406 L59.3966873,60.8009406 L59.3966873,58.8805277 L57.5212766,58.8805277 L57.5212766,56.9888399 L59.3735535,56.9888399 C59.3735535,56.3513652 59.3735535,55.740031 59.3730291,55.129343 C59.3725046,55.1298717 59.3674933,55.1364508 59.3674933,55.1364508 Z" id="Fill-3" fill="#D7DCDC"></path>
                    <path d="M59.2765957,34.576332 L61.1765176,34.576332 L61.1765176,32.7021277 L63.0771442,32.7021277 L63.0771442,42.0122703 C63.1843922,42.0247346 63.2581619,42.0407189 63.3319903,42.0408343 C64.4280222,42.0425077 65.5240542,42.037372 66.6200274,42.0461432 C66.8325851,42.047932 66.9134028,41.9955358 66.9065897,41.7730826 C66.8909078,41.2552946 66.9015973,40.7368142 66.9015973,40.1834222 L65.0066679,40.1834222 L65.0066679,36.447651 L68.7895962,36.447651 L68.7895962,42.0266388 C68.9258587,42.0331018 69.0212424,42.0414691 69.1165674,42.0415845 C70.1734826,42.0425077 71.2303391,42.0437196 72.2872543,42.0396802 C72.3879828,42.0392763 72.4886526,42.0040761 72.589851,41.9854374 C72.5903209,41.985899 72.5862682,41.9803593 72.5862682,41.9803593 C72.5950196,42.104483 72.6111127,42.2286067 72.6112301,42.3527881 C72.6129334,44.0053471 72.6124048,45.6579638 72.6124048,47.3105804 L72.6124048,47.6528295 L74.4893617,47.6528295 L74.4893617,49.5101839 L72.6269708,49.5101839 L72.6269708,51.4197614 L68.7908884,51.4197614 L68.7988174,51.4255319 C68.7955871,50.7870826 68.7924742,50.1485755 68.7892438,49.5101262 L70.6865813,49.5101262 L70.6865813,43.9326387 L68.7982888,43.9326387 L68.7982888,45.7817412 L66.9241511,45.7817412 L66.9241511,47.6767771 L64.9797091,47.6767771 L64.9797091,45.7815681 C64.7017806,45.7815681 64.4502236,45.782953 64.1987254,45.7813373 C63.1837461,45.7747012 62.1688256,45.7672573 61.1539051,45.7601018 L61.1635961,45.7695655 L61.1635961,43.910076 L59.2913379,43.910076 L59.2913379,42.0327556 L61.1517319,42.0327556 L61.1517319,36.4123932 L59.2845248,36.4123932 L59.2845248,34.5676762 L59.2765957,34.576332 Z" id="Fill-5" fill="#D7DCDC"></path>
                    <path d="M24.9190776,74.0843033 L34.5150006,74.0843033 L34.5150006,64.4836403 L24.9190776,64.4836403 L24.9190776,74.0843033 Z M23,76 L36.4574468,76 L36.4574468,62.5425532 L23,62.5425532 L23,76 Z" id="Fill-6" fill="#D7DCDC"></path>
                    <path d="M24.9156798,32.5150773 L34.5163769,32.5150773 L34.5163769,22.9190012 L24.9156798,22.9190012 L24.9156798,32.5150773 Z M23,34.4574468 L36.4574468,34.4574468 L36.4574468,21 L23,21 L23,34.4574468 Z" id="Fill-7" fill="#D7DCDC"></path>
                    <path d="M66.4760066,32.5255027 L76.0793245,32.5255027 L76.0793245,22.9249891 L66.4760066,22.9249891 L66.4760066,32.5255027 Z M64.5425532,34.4574468 L78,34.4574468 L78,21 L64.5425532,21 L64.5425532,34.4574468 Z" id="Fill-8" fill="#D7DCDC"></path>
                    <path d="M40.2847158,43.5445739 L42.1562882,43.5445739 L42.1562882,41.6918328 L40.2847158,41.6918328 L40.2847158,43.5445739 Z M36.4799937,41.6235169 C36.7299527,41.6402901 36.9797351,41.6660323 37.2299296,41.6717399 C37.5910338,41.6800682 37.9524912,41.673953 38.348034,41.673953 L38.348034,37.9012031 C38.9084107,37.9012031 39.4354675,37.8892639 39.9615234,37.906503 C40.2064197,37.9145402 40.2831852,37.8409826 40.2749435,37.5973634 C40.2572827,37.0766366 40.2695276,36.5548616 40.2695276,36.0072861 L38.3711108,36.0072861 L38.3711108,30.3617021 L42.1671791,30.3617021 L42.1671791,32.2128125 L42.1752442,32.2066973 L40.2893076,32.2066973 L40.2893076,34.1380047 L42.175303,34.1380047 L42.1670025,34.1313653 L42.1670025,36.0000643 L44.0638298,36.0000643 L44.0638298,47.3297872 L40.2782991,47.3297872 L40.2782991,45.4245716 L38.3380851,45.4245716 L38.3488582,45.4355207 L38.3488582,43.5644339 L36.4574468,43.5644339 L36.4675135,43.5738106 L36.4849388,41.6179258 L36.4799937,41.6235169 Z" id="Fill-9" fill="#D7DCDC"></path>
                    <path d="M26.7772901,53.1838465 L28.5940931,53.1838465 L28.5940931,55.0644245 L30.4689245,55.0644245 L30.4689245,53.2286633 L32.3414441,53.2286633 L32.3414441,55.0805539 L32.6878239,55.0805539 C33.7182356,55.0805539 34.7487051,55.0794018 35.7791169,55.0821093 C35.8926887,55.0823973 36.006145,55.1045177 36.119659,55.116442 L36.1084463,55.1050361 C36.1186765,55.7280935 36.1288488,56.3511509 36.1386166,56.9739202 C35.5082205,56.9735746 34.8781713,56.9735746 34.2366781,56.9735746 L34.2366781,58.7896924 L36.1031868,58.7896924 C36.1031868,58.6449306 36.1012217,58.5222317 36.1035336,58.3995903 C36.1123766,57.9226196 36.1224911,57.4456489 36.1321433,56.9686782 C36.7432928,56.9643002 37.3544423,56.9599222 37.965534,56.9555442 L37.9576158,56.9476523 L37.9576158,58.7970659 L39.8730789,58.7970659 L39.8670679,58.7910749 L39.8670679,60.7001098 L41.7226529,60.7001098 L41.7147346,60.6922755 C41.7147346,61.309054 41.7147346,61.9257748 41.7147924,62.5425532 L41.7234043,62.5332788 L37.9737413,62.5332788 L37.9737413,60.6915267 L30.490772,60.6915267 L30.490772,58.8265597 L32.3282085,58.8265597 L32.3282085,56.9741507 L28.6103341,56.9741507 L28.6103341,60.6666989 L26.7294339,60.6666989 L26.7294339,60.1998667 C26.7294339,59.8639134 26.7295495,59.5280177 26.7293761,59.1920644 C26.7292027,58.8129649 26.7290871,58.8126193 26.3622471,58.8125617 C25.3511397,58.8123888 24.3400323,58.8125041 23.3288671,58.8125041 L23,58.8125041 L23,56.9583669 L26.7294339,56.9583669 L26.7294339,56.6240841 C26.7294339,55.5874793 26.7279312,54.5508745 26.7316302,53.5143273 C26.7320348,53.4031494 26.7630142,53.292029 26.7797754,53.1808511 L26.7772901,53.1838465 Z" id="Fill-10" fill="#D7DCDC"></path>
                    <path d="M47.6968723,37.8856437 L47.6968723,35.9701007 L45.8270334,35.9701007 L45.8270334,30.3043423 L45.8191489,30.3125575 C46.435245,30.3172769 47.051341,30.3219963 47.6680795,30.3262495 C47.6822131,30.428561 47.7072681,30.531222 47.7075601,30.6339996 C47.7104219,31.670806 47.7093122,32.7075542 47.7093122,33.7443607 L47.7093122,34.058345 L49.5946281,34.058345 L49.5946281,30.330328 L47.6638161,30.330328 C47.6788841,30.2075077 47.7069761,30.0846291 47.7070929,29.9618087 C47.7097211,27.6805432 47.7090202,25.3992193 47.7090202,23.1179538 L47.7090202,22.7553191 L49.6011692,22.7553191 L49.6011692,26.5222564 L53.4244807,26.5222564 L53.4137929,26.5132255 C53.4135592,27.1371738 53.4133256,27.7610639 53.4130336,28.3850122 L53.4226118,28.3752239 L51.5169132,28.3752239 L51.5169132,34.0967992 L53.4227286,34.0967992 L53.413384,34.0875352 C53.413384,34.7116583 53.4134424,35.3357814 53.4134424,35.9599046 L53.4255319,35.9494171 L51.5092623,35.9494171 L51.5092623,39.7234043 L49.6186902,39.7234043 L49.6186902,37.8791181 L47.6903312,37.8791181 L47.6968723,37.8856437 Z" id="Fill-11" fill="#D7DCDC"></path>
                    <path d="M34.49532,47.3207039 L28.7545086,47.3207039 L28.7545086,45.3821596 L26.8258834,45.3821596 L26.8258834,47.2954389 L23,47.2954389 L23,41.4787234 L24.883739,41.4787234 L24.883739,43.4117936 L25.2524938,43.4117936 C28.8591047,43.4117936 32.4657749,43.4117334 36.0724452,43.4120943 C36.2007593,43.4120943 36.3291327,43.4172676 36.4574468,43.4200348 L36.4473074,43.4103499 C36.4471888,44.0546063 36.4470702,44.6988628 36.4469516,45.3430591 L36.4563202,45.3334344 L34.4885011,45.3334344 L34.4885011,47.3297872 L34.49532,47.3207039 Z" id="Fill-12" fill="#D7DCDC"></path>
                    <path d="M57.3492324,28.6167502 L59.2685413,28.6167502 L59.2685413,34.4574468 L59.2765957,34.4485095 C58.6330193,34.4482712 57.9893827,34.4480924 57.3457462,34.4478541 L57.3557842,34.4572085 L57.3557842,32.5188298 L55.3607994,32.5188298 L55.3607994,34.4570297 L55.3695151,34.4483308 C54.7257583,34.4482116 54.0820616,34.4480924 53.438365,34.4479733 L53.4479823,34.4573872 C53.4405289,34.349246 53.4266439,34.2410453 53.4265237,34.1329041 C53.4252013,32.3990106 53.4252013,30.6651767 53.4265237,28.9312832 C53.4266439,28.8229633 53.4404086,28.7147029 53.447862,28.606383 L53.4380043,28.6164523 L55.3695752,28.6159161 L55.3609196,28.6067405 L55.3609196,30.5634703 L57.3202604,30.5634703 C57.3202604,30.4158263 57.3178561,30.2799796 57.320621,30.1441924 C57.3313203,29.6316687 57.3437626,29.1192642 57.3554837,28.6067405 L57.3492324,28.6167502 Z" id="Fill-13" fill="#D7DCDC"></path>
                    <path d="M76.0756163,64.3006937 L76.0756163,69.9909699 L78,69.9909699 L78,71.8882968 C77.9212417,71.8941747 77.8532946,71.9036381 77.7853474,71.9036969 C75.9755377,71.904461 74.165728,71.9045786 72.3559182,71.9031679 C72.2869444,71.9031091 72.2179101,71.8864746 72.1489362,71.8774814 L72.1578146,71.88718 L72.1578146,68.0819459 L74.0901104,68.0819459 L74.0901104,64.2978723 L74.0800844,64.3074533 C74.7482614,64.3073945 75.4164385,64.3073945 76.0846155,64.3073358 L76.0756163,64.3006937 Z" id="Fill-14" fill="#D7DCDC"></path>
                    <path d="M59.266729,69.9175708 L59.266729,73.6595745 L57.2148154,73.6595745 L57.2148154,71.8022774 L55.1808511,71.8022774 L55.1808511,64.2978723 L57.196234,64.2978723 L57.196234,69.9255677 C57.9140815,69.9255677 58.5951454,69.9255677 59.2765885,69.9257995 C59.2769045,69.9260313 59.266729,69.9175708 59.266729,69.9175708" id="Fill-15" fill="#D7DCDC"></path>
                    <path d="M76.0104868,57.2945359 L76.0104868,61.0551853 L78,61.0551853 L78,64.8763754 L75.9912336,64.8763754 L76.0007024,64.8829787 L76.0007024,62.943808 L73.9056441,62.943808 L73.9159335,62.9530411 C73.9218041,61.7108475 73.9307047,60.4686539 73.9324091,59.2265188 C73.9332929,58.576525 73.9215516,57.9265311 73.9155547,57.2765957 L73.9042553,57.2861794 C74.6089837,57.2918478 75.3137753,57.2975162 76.0185037,57.3031261 L76.0104868,57.2945359 Z" id="Fill-16" fill="#D7DCDC"></path>
                    <polygon id="Fill-17" fill="#D7DCDC" points="59.2857184 22.9296803 59.2857184 21 63.3723404 21 63.3723404 26.8510638 59.2852749 26.8510638 59.2852749 24.9270826 59.2767224 24.9329029 61.306888 24.9329029 61.306888 22.9222837 59.2765957 22.9222837"></polygon>
                    <path d="M55.4447159,40.3085106 L55.4447159,38.3583368 L53.4385407,38.3583368 L53.4385407,36.3825003 C53.4385407,36.3825605 53.4255319,36.3934641 53.4255319,36.3934641 L55.4445902,36.3934641 L55.4445902,34.4579287 L55.4354778,34.4667239 L57.5212766,34.4669046 L57.5107816,34.4574468 C57.5020463,34.576844 57.4858325,34.6961207 57.4857068,34.8154576 C57.48401,36.5218974 57.4845127,38.2282167 57.4845127,39.9345963 L57.4845127,40.3006191 L55.4356663,40.3006191 L55.4447159,40.3085106 Z" id="Fill-18" fill="#D7DCDC"></path>
                    <polygon id="Fill-19" fill="#D7DCDC" points="28.8510638 40.2993023 24.7553191 40.2993023 24.7553191 36.212766 28.8422634 36.212766 28.8422634 40.3085106"></polygon>
                    <path d="M72.1401281,71.9048221 L72.1401281,76 L66.2978723,76 L66.2978723,73.9941613 L70.2242417,73.9941613 C70.2242417,73.277354 70.2242417,72.5908362 70.2243021,71.9042553 L70.2107882,71.916094 C70.8568577,71.9158421 71.5028668,71.9155273 72.1489362,71.9152124 L72.1401281,71.9048221 Z" id="Fill-20" fill="#D7DCDC"></path>
                    <path d="M44.0024908,22.9035379 C44.022908,22.9593298 44.0610074,23.0150005 44.0611346,23.0708532 C44.0645693,24.3232015 44.0637424,25.5756104 44.0637424,26.8510638 L42.0045921,26.8510638 L42.0045921,24.9165978 L39.9680851,24.9165978 L39.9680851,21 L41.9912986,21 L41.9912986,22.9059029 L44.0038901,22.9059029 L44.0024908,22.9035379 Z" id="Fill-21" fill="#D7DCDC"></path>
                    <path d="M75.9909405,57.2765957 C75.9810934,56.6865548 75.9665786,56.0966342 75.9624223,55.5065331 C75.9574349,54.7974008 75.9612074,54.0882684 75.9612074,53.3530191 L73.9042553,53.3530191 L73.9042553,51.4255319 L78,51.4255319 L78,57.2666063 C77.3344271,57.2666063 76.6581119,57.2666063 75.9822444,57.2671479 C75.9828198,57.2677496 75.9909405,57.2765957 75.9909405,57.2765957" id="Fill-22" fill="#D7DCDC"></path>
                    <path d="M34.691564,49.0851064 C34.6927175,49.8653864 34.6938103,50.6456665 34.6953281,51.4255319 C34.6956316,51.4251173 34.7021277,51.418 34.7021277,51.418 C34.5834381,51.4045254 34.4648092,51.3795802 34.3461195,51.379442 C32.6395997,51.3768853 30.9332013,51.3777145 29.2266815,51.3777145 L28.8510638,51.3777145 L28.8510638,49.1251845 L29.1890408,49.1251845 C30.9157166,49.1251845 32.6423317,49.1258064 34.3690075,49.1236643 C34.4780441,49.1235261 34.5871414,49.1018977 34.696178,49.0902198 L34.691564,49.0851064 Z" id="Fill-23" fill="#D7DCDC"></path>
                    <path d="M42.3085106,53.7568193 L40.2544552,53.7568193 L40.2544552,51.7276992 L38.212766,51.7276992 L38.212766,49.6702128 L42.2989982,49.6702128 C42.2989982,51.0318015 42.2989982,52.3989112 42.299125,53.7659574 C42.2992519,53.7658305 42.3085106,53.7568193 42.3085106,53.7568193" id="Fill-24" fill="#D7DCDC"></path>
                    <path d="M53.7494114,25.0887485 L51.6702128,25.0887485 L51.6702128,21 L55.7659574,21 L55.7659574,23.0024915 L53.7425279,23.0024915 C53.7425279,23.7221556 53.7425279,24.4090447 53.7425916,25.0957447 C53.7425916,25.0956817 53.7494114,25.0887485 53.7494114,25.0887485" id="Fill-25" fill="#D7DCDC"></path>
                    <path d="M57.5142712,25.136945 C57.497946,25.2061067 57.4676724,25.2752685 57.4675474,25.3444303 C57.4648578,26.5756748 57.4655458,27.8069193 57.4673597,29.0381639 C57.4674223,29.0892724 57.4851861,29.1403809 57.494756,29.1914894 L57.5013236,29.18081 L55.425711,29.18081 L55.4347805,29.190663 L55.4347805,27.1489291 L53.4255319,27.1489291 L53.4369783,27.1588457 C53.4356648,26.4787339 53.4342887,25.7987493 53.4329126,25.1187646 C53.4329126,25.1188917 53.4262199,25.1258842 53.4262199,25.1259478 C53.8602447,25.1164762 54.2943319,25.1009656 54.7285443,25.09855 C55.5373602,25.0941003 56.3461761,25.0953716 57.154992,25.0993764 C57.2772745,25.1000121 57.3994319,25.1283633 57.5212766,25.143556 C57.5209013,25.1432382 57.5142712,25.136945 57.5142712,25.136945" id="Fill-26" fill="#D7DCDC"></path>
                    <path d="M27.0957447,53.4362446 C26.5433756,53.4469256 25.9910692,53.4581183 25.4386374,53.4679039 C25.3050281,53.4702703 25.1714187,53.4682876 25.0089056,53.4682876 L25.0089056,55.5212766 L23,55.5212766 L23,51.4255319 L27.0415109,51.4255319 C27.0415109,51.9321435 27.0373729,52.438883 27.0437681,52.9454946 C27.0458371,53.1105703 27.0751797,53.2753262 27.0924844,53.4398902 C27.0930487,53.4395705 27.0957447,53.4362446 27.0957447,53.4362446" id="Fill-27" fill="#D7DCDC"></path>
                    <path d="M73.9121625,39.9935476 C73.9263453,39.5491931 73.9426618,39.1047746 73.953644,38.6603561 C73.9591037,38.4383069 73.9545853,38.2160656 73.9545853,37.9680851 L78,37.9680851 L78,42.0638298 L76.0135968,42.0638298 L76.0135968,39.9853521 C75.2914053,39.9853521 74.597642,39.9853521 73.9042553,39.9856722 C73.9046319,39.9859923 73.9121625,39.9935476 73.9121625,39.9935476" id="Fill-28" fill="#D7DCDC"></path>
                    <path d="M51.0851064,74.2732894 C51.2720423,74.2638312 51.4589154,74.2466747 51.6458513,74.2462897 C52.8172494,74.2437602 53.9885846,74.24497 55.1808511,74.24497 L55.1808511,76 L51.0933406,76 C51.0933406,75.4136519 51.0933406,74.8403913 51.0926492,74.2675705 C51.0920206,74.2680104 51.0851064,74.2732894 51.0851064,74.2732894" id="Fill-29" fill="#D7DCDC"></path>
                    <path d="M30.613939,39.6885967 C30.6306122,39.4163139 30.6542795,39.1441384 30.6620853,38.8716407 C30.6704531,38.5796443 30.6640211,38.2873256 30.6640211,37.9682567 L31.2560145,37.9682567 C32.2922526,37.9682567 33.3285532,37.967451 34.3647289,37.969331 C34.4771952,37.9695459 34.5896614,37.9851233 34.7021277,37.9935029 L34.6956957,37.9875405 C34.6863287,38.5663229 34.6768993,39.1451053 34.6680943,39.7234043 C34.6687188,39.7230282 34.6774613,39.7170121 34.6774613,39.7170121 C33.4543206,39.7130909 32.2311175,39.7098143 31.0080392,39.7042279 C30.8739665,39.7035833 30.7400186,39.6899933 30.606383,39.6826881 C30.6066952,39.6829566 30.613939,39.6885967 30.613939,39.6885967" id="Fill-30" fill="#D7DCDC"></path>
                    <path d="M55.1808511,47.9073492 L53.4598632,47.9073492 C53.4461826,47.8173819 53.4268018,47.7493563 53.4266932,47.6813307 C53.4250103,46.4453646 53.425336,45.2093357 53.4265303,43.9733696 C53.4265846,43.9219418 53.4386909,43.8705768 53.4452054,43.8191489 L53.4371165,43.8273849 L55.172925,43.8273849 L55.172925,47.9148936 L55.1808511,47.9073492 Z" id="Fill-31" fill="#D7DCDC"></path>
                    <polygon id="Fill-32" fill="#D7DCDC" points="72.1489362 40.2982921 70.393617 40.2982921 70.393617 36.212766 72.1409896 36.212766 72.1409896 40.3085106"></polygon>
                    <path d="M76.2661198,45.5804914 C76.6664786,45.593793 77.0667824,45.6086631 77.4672512,45.6195176 C77.6390613,45.6240979 77.8110364,45.6202706 78,45.6202706 L78,49.6702128 L76.2738719,49.6702128 C76.2640856,49.640347 76.246987,49.6124264 76.246932,49.5844429 C76.2449528,48.2986484 76.2441831,47.0127911 76.2450078,45.7269966 C76.2450627,45.6761119 76.2622163,45.62529 76.2713978,45.5744681 L76.2661198,45.5804914 Z" id="Fill-33" fill="#D7DCDC"></path>
                    <path d="M34.707739,37.9680851 L34.707739,36.212766 L36.4574468,36.212766 L36.4574468,37.9619067 C35.8745706,37.9619067 35.2883491,37.9619067 34.7021277,37.9620141 C34.7021816,37.9621216 34.707739,37.9680851 34.707739,37.9680851" id="Fill-34" fill="#D7DCDC"></path>
                    <path d="M53.4255319,43.2270499 L51.6702128,43.2270499 L51.6702128,41.4834911 L53.4241875,41.4834911 L53.4183796,41.4787234 C53.418057,42.0638298 53.4177343,42.6489362 53.4175192,43.2340426 L53.4255319,43.2270499 Z" id="Fill-35" fill="#D7DCDC"></path>
                    <path d="M45.2340426,30.3541345 L43.4787234,30.3541345 L43.4787234,28.606383 L45.2267988,28.606383 C45.2267988,29.1922148 45.2267988,29.7769034 45.2267444,30.361701 C45.2266355,30.3618099 45.2340426,30.3541345 45.2340426,30.3541345" id="Fill-36" fill="#D7DCDC"></path>
                    <path d="M41.7235679,32.7076856 L43.4787234,32.7076856 L43.4787234,34.4513595 L41.7234043,34.4513595 L41.7311494,34.4574468 C41.7311494,33.8723228 41.7310949,33.2871988 41.7310949,32.7021277 L41.7235679,32.7076856 Z" id="Fill-37" fill="#D7DCDC"></path>
                    <path d="M37.0425532,41.4244037 C36.8296741,41.4419196 36.6170715,41.4717837 36.4038469,41.4747211 C35.8669493,41.4820103 35.3298444,41.4771146 34.7141539,41.4771146 C34.7141539,40.870695 34.7141539,40.2968048 34.7133937,39.7234043 C34.7124951,39.7239482 34.7027497,39.7300407 34.7021277,39.7304215 C35.4549454,39.7308567 36.2085235,39.7308567 37.0356415,39.7308567 C37.0356415,40.3018094 37.0356415,40.86618 37.0361945,41.430061 C37.0367474,41.4296803 37.0425532,41.4244037 37.0425532,41.4244037" id="Fill-38" fill="#D7DCDC"></path>
                    <path d="M38.212766,28.6056633 L38.212766,26.8510638 L39.9673573,26.8510638 C39.9673573,27.3904942 39.9712727,27.9245052 39.9609404,28.4582424 C39.9600159,28.5082768 39.8702879,28.5982731 39.8204752,28.5992585 C39.2899921,28.60955 38.7591826,28.6056633 38.212766,28.6056633" id="Fill-39" fill="#D7DCDC"></path>
                    <path d="M75.6595745,45.5686357 L73.9042553,45.5686357 L73.9042553,43.8191489 L75.6535044,43.8191489 C75.6535044,44.4067602 75.6535044,44.9908385 75.6539879,45.5744681 C75.6544176,45.5740194 75.6595745,45.5686357 75.6595745,45.5686357" id="Fill-40" fill="#D7DCDC"></path>
                    <path d="M38.2027153,45.5744681 L38.2027153,47.3218606 L36.4593586,47.3218606 L36.465968,47.3297872 C36.4660227,46.7451741 36.4660227,46.1606137 36.4660773,45.5760006 L36.4574468,45.5844556 C37.0425714,45.5844556 37.627696,45.5844028 38.212766,45.5844028 L38.2027153,45.5744681 Z" id="Fill-41" fill="#D7DCDC"></path>
                    <path d="M49.9205725,47.3297872 L49.9205725,45.5744681 L51.6702128,45.5744681 L51.6702128,47.3232236 C51.0854033,47.3232236 50.4999258,47.3232236 49.9148936,47.3237572 C49.9153947,47.3242909 49.9205725,47.3297872 49.9205725,47.3297872" id="Fill-42" fill="#D7DCDC"></path>
                    <path d="M34.707096,49.0851064 C34.7167904,48.5 34.7264152,47.9148936 34.7361096,47.3297872 L34.728089,47.3381506 L37.0425532,47.3381506 L37.0341141,47.329898 L37.0341141,49.0815062 C36.2373554,49.0815062 35.469959,49.0815062 34.7021441,49.0812293 C34.7017954,49.0810078 34.707096,49.0851064 34.707096,49.0851064" id="Fill-43" fill="#D7DCDC"></path>
                    <path d="M37.0425532,53.1757771 L34.7111814,53.1757771 C34.7111814,52.5896733 34.7111814,52.0073785 34.7104903,51.4255319 C34.7098683,51.4260361 34.7025423,51.4318058 34.7021277,51.4321419 C35.45186,51.432478 36.2020761,51.432478 37.0372315,51.432478 C37.0372315,52.0045217 37.0372315,52.5924181 37.0367477,53.1808187 C37.036264,53.1813228 37.0425532,53.1757771 37.0425532,53.1757771" id="Fill-44" fill="#D7DCDC"></path>
                    <path d="M59.2762188,25.0683247 C58.7058359,25.0746201 58.1354531,25.0809155 57.565555,25.0877705 C57.5660397,25.0884 57.5718022,25.095325 57.5720715,25.0957447 C57.5560764,24.8104225 57.530172,24.5251003 57.5254327,24.2391485 C57.5175698,23.7653136 57.5232785,23.2911289 57.5232785,22.7638529 L59.2765957,22.7638529 L59.2688406,22.7553191 C59.2688944,23.5284661 59.2689483,24.3017529 59.2689483,25.0750398 L59.2762188,25.0683247 Z" id="Fill-45" fill="#D7DCDC"></path>
                    <path d="M43.4798361,22.7553191 C43.4968703,22.6319542 43.5270769,22.5087573 43.528664,22.3851125 C43.5345889,21.9308901 43.5310445,21.4764438 43.5310445,21 L45.2340426,21 L45.2340426,22.7533601 C44.6462564,22.7533601 44.0625966,22.7533601 43.4787252,22.7532481 C43.4786723,22.7531362 43.4798361,22.7553191 43.4798361,22.7553191" id="Fill-46" fill="#D7DCDC"></path>
                    <path d="M36.4679881,55.5212766 C36.4737776,54.7412784 36.4796218,53.9612105 36.4856298,53.1808638 C36.4859029,53.1805154 36.4809326,53.1874138 36.481315,53.1867866 C37.0489071,53.1861595 37.6161169,53.1861595 38.202607,53.1861595 L38.202607,55.5212766 L38.212766,55.5076193 C37.6276414,55.5076193 37.0425714,55.5075496 36.4574468,55.50748 L36.4679881,55.5212766 Z" id="Fill-47" fill="#D7DCDC"></path>
                    <polygon id="Fill-48" fill="#D7DCDC" points="76.2446809 76 78 76 78 74.2446809 76.2446809 74.2446809"></polygon>
                    <path d="M47.5683209,37.9680851 L47.5683209,39.7234043 L45.8191489,39.7234043 L45.8191489,37.9741815 C46.4057875,37.9741815 46.9901555,37.9741815 47.5744681,37.9742369 L47.5683209,37.9680851 Z" id="Fill-49" fill="#D7DCDC"></path>
                    <path d="M28.8510638,39.7444212 C29.4213819,39.7396667 29.991646,39.7349663 30.561532,39.7297796 C30.5610458,39.7294014 30.5547791,39.7236744 30.554509,39.7234043 C30.57104,39.8986714 30.5992398,40.0739926 30.6024272,40.2497461 C30.6097202,40.6525796 30.6046961,41.0556293 30.6046961,41.4787234 L28.8584109,41.4787234 C28.8584109,40.8997582 28.8584109,40.3183077 28.8584649,39.7366952 C28.858573,39.7365871 28.8510638,39.7444212 28.8510638,39.7444212" id="Fill-50" fill="#D7DCDC"></path>
                    <polygon id="Fill-51" fill="#D7DCDC" points="53.4313821 41.4787234 53.4313821 39.7305686 55.1808511 39.7305686 55.172978 39.7234043 55.172978 41.4738013 53.4255319 41.4738013"></polygon>
                    <path d="M72.1763221,39.7391558 C72.7397483,39.7363637 73.3031745,39.7335716 73.8661729,39.7303581 C73.8657452,39.729884 73.8592765,39.7236677 73.8590092,39.7234043 C73.8731763,39.9996616 73.893545,40.2761296 73.9005484,40.552861 C73.9078191,40.8398125 73.9021522,41.1270274 73.9021522,41.4787234 C73.300341,41.4511714 72.7247792,41.4248311 72.14895,41.3982274 C72.1486827,41.3978586 72.1523716,41.4029686 72.1519439,41.4025472 C72.1622084,40.8451859 72.1729541,40.2882461 72.1839136,39.7309903 C72.1841274,39.7306742 72.1763221,39.7391558 72.1763221,39.7391558" id="Fill-52" fill="#D7DCDC"></path>
                    <path d="M66.2978723,47.3297872 L68.0531915,47.3297872 L68.0531915,49.0848879 C67.4681215,49.0849425 66.8829969,49.0849971 66.2978723,49.0851064 L66.2978723,47.3297872 Z" id="Fill-53" fill="#D7DCDC"></path>
                    <polygon id="Fill-54" fill="#D7DCDC" points="64.5425532 64.2978723 66.2978723 64.2978723 66.2978723 62.5425532 64.5425532 62.5425532"></polygon>
                    <polygon id="Fill-55" fill="#D7DCDC" points="27.0957447 72.4893617 32.9468085 72.4893617 32.9468085 66.6382979 27.0957447 66.6382979"></polygon>
                    <polygon id="Fill-56" fill="#D7DCDC" points="27.0957447 30.9468085 32.9468085 30.9468085 32.9468085 25.0957447 27.0957447 25.0957447"></polygon>
                    <polygon id="Fill-57" fill="#D7DCDC" points="68.6382979 30.9468085 74.4893617 30.9468085 74.4893617 25.0957447 68.6382979 25.0957447"></polygon>
                    <polygon id="Fill-1" fill="#788536" points="99.9999 81.0003 99.9999 100.0003 80.9999 100.0003 80.9999 102.0003 101.9999 102.0003 101.9999 81.0003"></polygon>
                    <polygon id="Fill-2" fill="#788536" points="0 0.0003 0 21.0003 2 21.0003 2 2.0003 21 2.0003 21 0.0003"></polygon>
                    <polygon id="Fill-3" fill="#788536" points="0 81.0003 0 102.0003 21 102.0003 21 100.0003 2 100.0003 2 81.0003"></polygon>
                    <polygon id="Fill-4" fill="#788536" points="81 0.0003 81 2.0003 100 2.0003 100 21.0003 102 21.0003 102 0.0003"></polygon>
                </g>
            </g>
        </g>
    </g>
</svg>