<?xml version="1.0" encoding="UTF-8"?>
<svg width="24px" height="24px" viewBox="0 0 24 24" version="1.1" xmlns="http://www.w3.org/2000/svg" xmlns:xlink="http://www.w3.org/1999/xlink">
    <!-- Generator: Sketch 52.5 (67469) - http://www.bohemiancoding.com/sketch -->
    <title>Icons / Scan</title>
    <desc>Created with Sketch.</desc>
    <g id="Icons-/-Scan" stroke="none" stroke-width="1" fill="none" fill-rule="evenodd">
        <rect id="Shape" fill-rule="nonzero" x="0" y="0" width="24" height="24"></rect>
        <path d="M11.35,8.66666667 L10.5,8.66666667 L10.5,7 L11.35,7 L11.35,7.83333333 L13.05,7.83333333 L13.05,8.66666667 L12.2,8.66666667 L12.2,9.5 L11.35,9.5 L11.35,8.66666667 Z M13.05,18.6666667 L13.05,17.8333333 L12.2,17.8333333 L12.2,18.6666667 L13.05,18.6666667 Z M12.2,6.16666667 L12.2,5.33333333 L10.5,5.33333333 L10.5,6.16666667 L11.35,6.16666667 L11.35,7 L12.2,7 L12.2,6.16666667 Z M19,5.33333333 L19,10.3333333 L18.15,10.3333333 L18.15,9.5 L14.75,9.5 L14.75,5.33333333 L19,5.33333333 Z M18.15,8.66666667 L18.15,6.16666667 L15.6,6.16666667 L15.6,8.66666667 L18.15,8.66666667 Z M6.25,10.3333333 L5.4,10.3333333 L5.4,11.1666667 L7.1,11.1666667 L7.1,10.3333333 L6.25,10.3333333 Z M6.25,12.8333333 L7.1,12.8333333 L7.1,13.6666667 L7.95,13.6666667 L7.95,11.1666667 L7.1,11.1666667 L7.1,12 L5.4,12 L5.4,13.6666667 L6.25,13.6666667 L6.25,12.8333333 Z M10.5,13.6666667 L10.5,15.3333333 L11.35,15.3333333 L11.35,13.6666667 L10.5,13.6666667 Z M13.9,5.33333333 L13.05,5.33333333 L13.05,7.83333333 L13.9,7.83333333 L13.9,5.33333333 Z M13.9,9.5 L13.9,8.66666667 L13.05,8.66666667 L13.05,9.5 L13.9,9.5 Z M16.45,7.83333333 L17.3,7.83333333 L17.3,7 L16.45,7 L16.45,7.83333333 Z M7.95,7 L7.1,7 L7.1,7.83333333 L7.95,7.83333333 L7.95,7 Z M9.65,5.33333333 L9.65,9.5 L5.4,9.5 L5.4,5.33333333 L9.65,5.33333333 Z M8.8,6.16666667 L6.25,6.16666667 L6.25,8.66666667 L8.8,8.66666667 L8.8,6.16666667 Z M16.45,10.3333333 L16.45,11.1666667 L15.6,11.1666667 L15.6,10.3333333 L13.9,10.3333333 L13.9,11.1666667 L13.05,11.1666667 L13.05,10.3333333 L10.5,10.3333333 L10.5,9.5 L9.65,9.5 L9.65,10.3333333 L8.8,10.3333333 L8.8,11.1666667 L9.65,11.1666667 L9.65,12.8333333 L10.5,12.8333333 L10.5,12 L11.35,12 L11.35,13.6666667 L12.2,13.6666667 L12.2,12 L14.75,12 L14.75,12.8333333 L13.05,12.8333333 L13.05,13.6666667 L14.75,13.6666667 L14.75,14.5 L15.6,14.5 L15.6,12 L16.45,12 L16.45,12.8333333 L17.3,12.8333333 L17.3,14.5 L18.15,14.5 L18.15,13.6666667 L19,13.6666667 L19,12.8333333 L18.15,12.8333333 L18.15,12 L17.3,12 L17.3,11.1666667 L18.15,11.1666667 L18.15,10.3333333 L16.45,10.3333333 Z M7.1,17 L7.95,17 L7.95,16.1666667 L7.1,16.1666667 L7.1,17 Z M5.4,14.5 L9.65,14.5 L9.65,18.6666667 L5.4,18.6666667 L5.4,14.5 Z M6.25,17.8333333 L8.8,17.8333333 L8.8,15.3333333 L6.25,15.3333333 L6.25,17.8333333 Z M16.45,15.3333333 L16.45,14.5 L15.6,14.5 L15.6,15.3333333 L16.45,15.3333333 Z M16.45,16.1666667 L15.6,16.1666667 L15.6,17 L14.75,17 L14.75,16.1666667 L13.9,16.1666667 L13.9,15.3333333 L14.75,15.3333333 L14.75,14.5 L13.05,14.5 L13.05,13.6666667 L12.2,13.6666667 L12.2,15.3333333 L11.35,15.3333333 L11.35,16.1666667 L10.5,16.1666667 L10.5,18.6666667 L11.35,18.6666667 L11.35,17.8333333 L12.2,17.8333333 L12.2,17 L13.9,17 L13.9,18.6666667 L14.75,18.6666667 L14.75,17.8333333 L15.6,17.8333333 L15.6,18.6666667 L17.3,18.6666667 L17.3,17.8333333 L18.15,17.8333333 L18.15,17 L16.45,17 L16.45,16.1666667 Z M8.8,13.6666667 L9.65,13.6666667 L9.65,12.8333333 L8.8,12.8333333 L8.8,13.6666667 Z M17.3,15.3333333 L17.3,16.1666667 L18.15,16.1666667 L18.15,17 L19,17 L19,14.5 L18.15,14.5 L18.15,15.3333333 L17.3,15.3333333 Z M19,18.6666667 L19,17.8333333 L18.15,17.8333333 L18.15,18.6666667 L19,18.6666667 Z M19,12 L19,11.1666667 L18.15,11.1666667 L18.15,12 L19,12 Z M17.3,3.66666667 L20.7,3.66666667 L20.7,7 L22.4,7 L22.4,2 L17.3,2 L17.3,3.66666667 Z M3.7,7 L3.7,3.66666667 L7.1,3.66666667 L7.1,2 L2,2 L2,7 L3.7,7 Z M7.1,20.3333333 L3.7,20.3333333 L3.7,17 L2,17 L2,22 L7.1,22 L7.1,20.3333333 Z M20.7,17 L20.7,20.3333333 L17.3,20.3333333 L17.3,22 L22.4,22 L22.4,17 L20.7,17 Z" id="Shape" fill="#788536" fill-rule="nonzero"></path>
    </g>
</svg>