<?xml version="1.0" encoding="UTF-8"?>
<svg width="32px" height="24px" viewBox="0 0 32 24" version="1.1" xmlns="http://www.w3.org/2000/svg" xmlns:xlink="http://www.w3.org/1999/xlink">
    <!-- Generator: Sketch 50.2 (55047) - http://www.bohemiancoding.com/sketch -->
    <title>Vixxo Logo Icon</title>
    <desc>Created with Sketch.</desc>
    <defs>
        <path d="M15.6057525,23.3034716 C15.1608894,23.3034716 14.7000506,23.0732024 14.2361395,22.6194365 L10.8701725,17.6748564 L10.8732447,17.6725988 L4.11304597,7.83141128 C3.96311973,7.60735029 3.81196459,7.38272492 3.66203835,7.15922832 C2.49335101,5.41584193 1.32466368,3.67358432 0.143072859,1.94035687 C-0.0498650084,1.40306201 -0.051093912,0.948167408 0.160277509,0.629854064 C0.377178996,0.30420371 0.833716688,0.0925591994 1.51883045,0 L29.7473608,0.00225754145 C30.3015964,0.00225754145 30.8171214,0.252844642 31.0911669,0.655815791 C31.3615257,1.0525787 31.3615257,1.54415835 31.0917814,1.94035687 L26.8237991,8.20277685 C25.2034897,10.5794036 23.5794936,12.9520797 21.9554975,15.3253201 C20.2854175,17.765158 18.6153375,20.2055603 16.9501731,22.649349 C16.5114545,23.0732024 16.0506156,23.3034716 15.6057525,23.3034716 Z M11.272024,2.89191059 C12.6625284,4.92877737 14.0499606,6.96677291 15.4367783,9.00533283 L15.6155838,9.26664326 L16.7345005,7.6457285 L16.7228259,7.6457285 L20.1655994,2.59447951 L11.0692549,2.59447951 L11.272024,2.89191059 Z M20.4660663,7.39739894 C19.4706544,8.85972141 18.4721702,10.319222 17.4699993,11.7781581 L17.3999518,11.8814406 L19.0755619,14.341032 L27.0818689,2.59447951 L23.7300343,2.59447951 L20.4568495,7.39739894 L20.4660663,7.39739894 Z M13.6327478,16.4856964 L15.6118971,19.3815577 L17.2801337,16.9355116 L7.50481994,2.59447951 L4.15359979,2.59447951 L8.69378418,9.25591994 L8.69747089,9.25648432 C10.328226,11.6460919 11.96021,14.0351352 13.5940373,16.423614 L13.6327478,16.4856964 Z" id="path-1"></path>
    </defs>
    <g id="Web-Library" stroke="none" stroke-width="1" fill="none" fill-rule="evenodd">
        <g id="Global-Nav-/-Tablet" transform="translate(-11.000000, -18.000000)">
            <g id="Vixxo-Logo-Icon" transform="translate(11.000000, 18.000000)">
                <mask id="mask-2" fill="white">
                    <use xlink:href="#path-1"></use>
                </mask>
                <use id="Vixxo" fill="#FFFFFE" xlink:href="#path-1"></use>
            </g>
        </g>
    </g>
</svg>