<svg xmlns="http://www.w3.org/2000/svg" xmlns:xlink="http://www.w3.org/1999/xlink" width="24" height="24" viewBox="0 0 24 24">
  <g>
    <path d="M12,2 C6.48,2 2,6.48 2,12 C2,17.52 6.48,22 12,22 C17.52,22 22,17.52 22,12 C22,6.48 17.52,2 12,2 Z"/>
    <path fill="#fff" d="M12,7 C12.5522847,7 13,7.44771525 13,8 L13,13 C13,13.5522847 12.5522847,14 12,14 C11.4477153,14 11,13.5522847 11,13 L11,8 C11,7.44771525 11.4477153,7 12,7 Z M12,15 C12.5522847,15 13,15.4477153 13,16 C13,16.5522847 12.5522847,17 12,17 C11.4477153,17 11,16.5522847 11,16 C11,15.4477153 11.4477153,15 12,15 Z"/>
  </g>
</svg>
