<?xml version="1.0" standalone="no"?>
<!DOCTYPE svg PUBLIC "-//W3C//DTD SVG 20010904//EN"
 "http://www.w3.org/TR/2001/REC-SVG-20010904/DTD/svg10.dtd">
<svg version="1.0" xmlns="http://www.w3.org/2000/svg"
 width="512.000000pt" height="512.000000pt" viewBox="0 0 512.000000 512.000000"
 preserveAspectRatio="xMidYMid meet">
<metadata>
Created by potrace 1.11, written by Peter Selinger 2001-2013
</metadata>
<g transform="translate(0.000000,512.000000) scale(0.100000,-0.100000)"
fill="#000000" stroke="none">
<path d="M170 4254 c-64 -17 -122 -53 -147 -90 -22 -34 -26 -133 -7 -186 7
-22 38 -74 67 -116 30 -42 166 -243 302 -447 241 -359 394 -586 480 -710 45
-65 508 -741 648 -945 262 -382 499 -730 683 -1003 136 -202 162 -232 236
-272 99 -54 214 -38 306 42 23 21 109 136 190 256 81 119 309 454 507 744 538
787 1269 1861 1562 2293 122 180 136 216 113 293 -17 58 -85 122 -151 142 -47
13 -308 15 -2393 14 -2029 0 -2348 -2 -2396 -15z m1057 -417 c6 -4 42 -53 80
-110 37 -56 70 -104 73 -107 3 -3 61 -88 130 -190 68 -102 139 -206 157 -232
18 -26 70 -102 116 -170 46 -68 194 -285 328 -483 135 -198 303 -445 374 -550
71 -104 177 -260 236 -345 l106 -155 -116 -170 c-64 -94 -125 -184 -137 -199
l-21 -29 -65 94 c-36 52 -112 164 -170 249 -58 85 -153 225 -211 310 -261 382
-303 443 -312 459 -9 14 -86 128 -260 381 -75 109 -170 248 -267 390 -485 713
-578 852 -574 858 6 10 518 9 533 -1z m2065 -2 c-3 -5 -19 -30 -37 -55 -17
-25 -85 -124 -150 -220 -65 -96 -137 -202 -160 -235 -23 -33 -113 -166 -200
-295 -151 -225 -191 -279 -198 -269 -1 2 -41 60 -87 129 -46 69 -209 309 -362
534 -153 225 -278 411 -278 415 0 3 333 6 739 6 490 0 737 -3 733 -10z m1128
2 c0 -7 -66 -107 -275 -412 -46 -66 -139 -203 -208 -305 -254 -375 -461 -678
-544 -800 -47 -69 -126 -185 -175 -257 -49 -73 -93 -133 -97 -133 -4 0 -67 88
-140 196 l-133 196 89 132 c49 72 130 190 178 261 71 103 193 284 275 405 6 8
64 94 130 190 65 96 174 256 241 355 l122 180 269 0 c147 0 268 -4 268 -8z"/>
</g>
</svg>
